<svg xmlns="http://www.w3.org/2000/svg" viewBox="0 0 240 240" role="img" aria-labelledby="title desc">
  <title id="title">步數儀表板小豬</title>
  <desc id="desc">粉紅色小豬拿著步數獎牌</desc>
  <defs>
    <linearGradient id="body" x1="30" y1="40" x2="210" y2="210" gradientUnits="userSpaceOnUse">
      <stop stop-color="#ffd8d2"/>
      <stop offset="1" stop-color="#f49a95"/>
    </linearGradient>
    <filter id="shadow" x="-20%" y="-20%" width="140%" height="150%">
      <feDropShadow dx="0" dy="12" stdDeviation="10" flood-color="#8b5b52" flood-opacity=".22"/>
    </filter>
  </defs>
  <circle cx="120" cy="124" r="86" fill="url(#body)" filter="url(#shadow)"/>
  <circle cx="71" cy="74" r="30" fill="#f7aaa4"/>
  <circle cx="169" cy="74" r="30" fill="#f7aaa4"/>
  <circle cx="86" cy="109" r="9" fill="#253238"/>
  <circle cx="154" cy="109" r="9" fill="#253238"/>
  <ellipse cx="120" cy="137" rx="35" ry="25" fill="#ffd5ce"/>
  <circle cx="106" cy="137" r="6" fill="#c96c6b"/>
  <circle cx="134" cy="137" r="6" fill="#c96c6b"/>
  <path d="M90 168c18 18 42 18 60 0" fill="none" stroke="#253238" stroke-width="7" stroke-linecap="round"/>
  <circle cx="174" cy="177" r="26" fill="#f5bd3d" stroke="#253238" stroke-width="6"/>
  <path d="M174 160l6 11 12 2-9 9 2 12-11-6-11 6 2-12-9-9 12-2 6-11z" fill="#fff8d8"/>
  <path d="M52 177c-12 5-21 0-23-9-2-8 5-15 13-12 8 2 9 13 2 19" fill="none" stroke="#253238" stroke-width="7" stroke-linecap="round"/>
</svg>
